<svg width="24" height="25" viewBox="0 0 24 25" fill="none" xmlns="http://www.w3.org/2000/svg">
<g clip-path="url(#clip0_195_39196)">
<path d="M12.5793 11.5868C11.7172 11.9559 10.7389 12.3743 9.47099 12.3743C8.94059 12.3733 8.41274 12.3005 7.90184 12.158L8.77877 21.1614C8.8098 21.5376 8.98124 21.8885 9.25901 22.1443C9.53678 22.4 9.90059 22.5419 10.2782 22.5419C10.2782 22.5419 11.5216 22.6065 11.9365 22.6065C12.383 22.6065 13.7219 22.5419 13.7219 22.5419C14.0995 22.5419 14.4632 22.3999 14.7409 22.1441C15.0186 21.8883 15.19 21.5376 15.221 21.1614L16.1603 11.2123C15.7405 11.069 15.3169 10.9737 14.8394 10.9737C14.0135 10.9734 13.3481 11.2578 12.5793 11.5868Z" fill="#FAFAFA"/>
<path d="M20.2155 6.91468L20.0834 6.24859C19.9649 5.65096 19.696 5.08625 19.0825 4.87025C18.8859 4.80114 18.6628 4.77146 18.512 4.62841C18.3612 4.48539 18.3167 4.26325 18.2818 4.05725C18.2172 3.67917 18.1565 3.30076 18.0903 2.92332C18.0332 2.59883 17.988 2.23431 17.8391 1.93662C17.6454 1.5369 17.2434 1.30314 16.8437 1.14849C16.6389 1.07203 16.4299 1.00735 16.2177 0.954765C15.219 0.6913 14.169 0.594438 13.1416 0.539227C11.9085 0.471182 10.6721 0.491683 9.44183 0.600573C8.52617 0.683874 7.56175 0.784611 6.69161 1.10135C6.37359 1.21726 6.04586 1.35642 5.80404 1.60213C5.50731 1.90401 5.41045 2.37089 5.62709 2.74735C5.78111 3.01469 6.042 3.20357 6.3187 3.32853C6.67911 3.48953 7.05551 3.61204 7.44165 3.69403C8.51681 3.93166 9.6304 4.02496 10.7288 4.06468C11.9463 4.11381 13.1656 4.07399 14.3773 3.94553C14.6769 3.9126 14.976 3.8731 15.2745 3.82705C15.6262 3.77312 15.8518 3.31335 15.7482 2.99305C15.6242 2.61014 15.291 2.46162 14.9142 2.51942C14.8587 2.52812 14.8035 2.53619 14.7479 2.54426L14.7079 2.55008C14.5803 2.56623 14.4526 2.58128 14.325 2.59528C14.0613 2.62369 13.797 2.64694 13.532 2.66503C12.9386 2.70635 12.3435 2.72539 11.7488 2.72637C11.1644 2.72637 10.5796 2.7099 9.99654 2.67148C9.73049 2.65405 9.46508 2.63187 9.20033 2.60496C9.0799 2.59237 8.95979 2.57914 8.83969 2.56428L8.72538 2.54976L8.70054 2.54621L8.58204 2.5291C8.33988 2.4926 8.09772 2.45064 7.85815 2.39994C7.83398 2.39457 7.81235 2.38114 7.79685 2.36182C7.78135 2.3425 7.7729 2.31848 7.7729 2.29372C7.7729 2.26896 7.78135 2.24493 7.79685 2.22562C7.81235 2.20631 7.83398 2.19286 7.85815 2.18749H7.86267C8.07029 2.14326 8.27949 2.10548 8.48936 2.07255C8.55933 2.06157 8.62949 2.05081 8.69988 2.04026H8.70181C8.83322 2.03155 8.96529 2.00797 9.09604 1.99248C10.2337 1.87414 11.3782 1.83379 12.5214 1.87172C13.0764 1.88787 13.6311 1.92048 14.1836 1.97666C14.3024 1.98893 14.4205 2.00184 14.5387 2.01637C14.5839 2.02186 14.6294 2.02832 14.675 2.03381L14.7667 2.04704C15.034 2.08687 15.2999 2.13519 15.5645 2.19202C15.9565 2.27725 16.4598 2.30502 16.6342 2.73444C16.6897 2.87069 16.7149 3.02212 16.7455 3.16514L16.7846 3.34757C16.7856 3.35084 16.7864 3.3542 16.7869 3.35758C16.8792 3.78808 16.9717 4.21857 17.0642 4.64907C17.071 4.68088 17.0712 4.71374 17.0647 4.7456C17.0582 4.77748 17.0453 4.80765 17.0266 4.8343C17.0079 4.86093 16.984 4.88342 16.9562 4.90039C16.9285 4.91735 16.8976 4.9284 16.8653 4.93289H16.8628L16.8062 4.94064L16.7504 4.94805C16.5735 4.97109 16.3963 4.99262 16.219 5.01264C15.8696 5.05246 15.5197 5.08689 15.1693 5.11596C14.473 5.17385 13.7752 5.21184 13.0761 5.22993C12.7199 5.23939 12.3637 5.24382 12.0077 5.24316C10.5906 5.24205 9.17476 5.15968 7.76711 4.99648C7.6147 4.97841 7.46231 4.95903 7.30991 4.93934C7.42809 4.95452 7.22402 4.92771 7.1827 4.92191C7.08584 4.90834 6.98897 4.89425 6.89211 4.87962C6.56697 4.83085 6.24379 4.7708 5.91929 4.71816C5.52701 4.65359 5.15183 4.68589 4.79699 4.87962C4.50572 5.039 4.26998 5.28341 4.12122 5.58025C3.96818 5.89666 3.92265 6.24116 3.8542 6.58116C3.78575 6.92114 3.67921 7.28695 3.71956 7.63597C3.80642 8.38924 4.33302 9.0014 5.09048 9.13831C5.80307 9.26745 6.51952 9.37206 7.23791 9.46118C10.0599 9.8068 12.9109 9.84814 15.7417 9.58452C15.9723 9.56299 16.2025 9.53954 16.4324 9.51413C16.5042 9.50625 16.5768 9.5145 16.645 9.53834C16.7132 9.56217 16.7752 9.60095 16.8265 9.65184C16.8777 9.70273 16.917 9.76445 16.9413 9.83245C16.9656 9.90048 16.9744 9.97308 16.967 10.0449L16.8954 10.7417C16.7509 12.1496 16.6065 13.5575 16.4621 14.9652C16.3114 16.4435 16.1598 17.9217 16.0071 19.3998C15.9641 19.8162 15.921 20.2324 15.878 20.6484C15.8367 21.0582 15.8309 21.4808 15.753 21.8857C15.6303 22.5224 15.1993 22.9134 14.5704 23.0564C13.9941 23.1876 13.4055 23.2565 12.8146 23.2617C12.1595 23.2653 11.5047 23.2362 10.8496 23.2398C10.1502 23.2437 9.29365 23.1792 8.75381 22.6586C8.27949 22.2015 8.21395 21.4856 8.14938 20.8666C8.06329 20.0471 7.97795 19.2279 7.89334 18.4086L7.11168 10.9057C7.1065 10.857 7.10134 10.8089 7.09649 10.7598C7.05968 10.4082 6.81075 10.064 6.41845 10.0817C6.08268 10.0966 5.70104 10.382 5.74043 10.7598L6.43879 17.4652C6.5729 18.7492 6.70668 20.0333 6.84013 21.3177C6.86597 21.5637 6.89018 21.8105 6.91729 22.0565C7.06486 23.401 8.09158 24.1255 9.36306 24.3294C10.1057 24.449 10.8664 24.4735 11.6199 24.4857C12.586 24.5013 13.5617 24.5385 14.5119 24.3634C15.92 24.105 16.9764 23.1649 17.1272 21.7065C17.1702 21.2854 17.2133 20.8643 17.2563 20.4431C17.3995 19.05 17.5424 17.6568 17.6851 16.2635L18.3661 9.62456C18.3767 9.52109 18.4204 9.42382 18.4907 9.34712C18.5609 9.27043 18.654 9.21838 18.7561 9.19868C19.1587 9.12022 19.5436 8.98622 19.83 8.67982C20.2859 8.19197 20.3766 7.55591 20.2155 6.91468ZM5.06982 7.36477C5.07595 7.36186 5.06465 7.41448 5.05981 7.43902C5.05884 7.40189 5.06078 7.36895 5.06982 7.36477ZM5.10889 7.66697C5.11212 7.6647 5.1218 7.67763 5.13181 7.69313C5.11664 7.67891 5.10727 7.66827 5.10889 7.66697ZM5.14731 7.71766C5.16862 7.75609 5.16119 7.74123 5.14731 7.71766ZM5.22448 7.78029H5.22641C5.22641 7.78256 5.22996 7.78482 5.23126 7.78709C5.22911 7.78459 5.22706 7.78232 5.22448 7.78029ZM18.7374 7.68666C18.5927 7.8242 18.3748 7.88813 18.1594 7.92011C15.7443 8.2785 13.294 8.45995 10.8525 8.37988C9.10508 8.32015 7.37611 8.12609 5.64616 7.88168C5.47664 7.85779 5.29292 7.82679 5.17637 7.70184C4.95681 7.46614 5.06465 6.99152 5.1218 6.70675C5.17411 6.44586 5.2742 6.09814 5.58448 6.061C6.06879 6.00418 6.63123 6.20855 7.11038 6.2812C7.68724 6.36923 8.26626 6.43973 8.84742 6.49268C11.3277 6.7187 13.8497 6.6835 16.319 6.35289C16.7691 6.29239 17.2176 6.22211 17.6645 6.14205C18.0626 6.07068 18.5039 5.9367 18.7445 6.349C18.9094 6.62991 18.9314 7.00573 18.9059 7.32311C18.898 7.46139 18.8379 7.59145 18.7374 7.68666Z" fill="#FAFAFA"/>
</g>
<defs>
<clipPath id="clip0_195_39196">
<rect width="24" height="24" fill="white" transform="translate(0 0.5)"/>
</clipPath>
</defs>
</svg>
