<svg width="120" height="40" viewBox="0 0 120 40" fill="none" xmlns="http://www.w3.org/2000/svg">
<path fill-rule="evenodd" clip-rule="evenodd" d="M9.70534 3.44992C9.5798 3.48642 9.3967 3.59126 9.29833 3.68285C9.09814 3.86942 6.39864 7.93286 5.35636 9.61658C4.68827 10.6959 4.54972 10.927 3.82308 12.1754C1.80935 15.635 0.581255 18.6251 0.144596 21.1314C-0.0251906 22.1061 -0.0519081 24.4617 0.0989131 25.1578C0.907508 28.8892 3.28588 31.7119 6.62201 32.8993C8.72184 33.6467 10.3916 33.733 12.447 33.2004C14.8941 32.5664 17.0361 31.0162 18.4611 28.8482C19.0605 27.9362 19.7058 26.2717 19.9414 25.0298C20.096 24.215 20.0968 22.5156 19.9431 21.47C19.736 20.0606 19.2348 18.3429 18.5705 16.7663C18.152 15.7728 16.6871 12.9291 15.9925 11.7615C15.1033 10.2668 12.7652 6.57953 11.7213 5.02571C10.9526 3.88131 10.7925 3.68646 10.5008 3.53933C10.1395 3.3572 10.0564 3.34779 9.70534 3.44992ZM8.98819 8.00895C8.43186 8.86518 7.90896 9.67784 7.82617 9.81474C7.74338 9.95164 7.33164 10.615 6.91123 11.2889C5.74681 13.1551 5.2017 14.1145 4.44052 15.6374C3.06845 18.3823 2.39089 20.3901 2.25632 22.1097C2.22877 22.4616 2.19385 22.8672 2.17873 23.0113C2.13018 23.4714 2.29079 24.788 2.48782 25.5465C3.21513 28.3456 5.35794 30.4214 8.26275 31.1407C9.47151 31.44 10.8347 31.3983 12.1812 31.0209C14.6657 30.3245 16.6664 28.3748 17.4516 25.8845C18.2002 23.5101 17.935 20.9264 16.6217 17.801C15.5996 15.369 14.1269 12.7537 11.4193 8.56294C10.7373 7.50741 10.139 6.60068 10.0895 6.54792C10.0186 6.47214 9.78783 6.77822 8.98819 8.00895Z" fill="white"/>
<path d="M27.1905 30.7515C26.5102 30.7515 26.0891 30.3142 26.0891 29.6015V8.07554C26.0891 7.36287 26.5102 6.92554 27.1905 6.92554C27.8708 6.92554 28.2919 7.36287 28.2919 8.07554V17.5509H41.9623V8.07554C41.9623 7.36287 42.3996 6.92554 43.0799 6.92554C43.744 6.92554 44.1813 7.36287 44.1813 8.07554V29.6015C44.1813 30.3142 43.744 30.7515 43.0799 30.7515C42.3996 30.7515 41.9623 30.3142 41.9623 29.6015V19.5593H28.2919V29.6015C28.2919 30.3142 27.8708 30.7515 27.1905 30.7515Z" fill="white"/>
<path d="M49.6235 36.6149C48.5545 36.6149 47.8904 36.2423 47.8904 35.5296C47.8904 35.0437 48.2144 34.7198 48.7489 34.7198C49.089 34.7198 49.2024 34.7684 49.6073 34.7684C50.8059 34.7684 51.7453 34.0557 52.5066 31.9015L52.9601 30.6381L46.9672 14.9593C46.8862 14.7649 46.8538 14.5544 46.8538 14.3924C46.8538 13.7931 47.3073 13.4044 47.939 13.4044C48.4411 13.4044 48.7651 13.6311 48.9594 14.198L54.0615 28.3867H54.1101L59.2284 14.198C59.439 13.6311 59.7143 13.4044 60.2488 13.4044C60.8643 13.4044 61.3016 13.8093 61.3016 14.3924C61.3016 14.5544 61.2692 14.7649 61.1883 14.9593L54.8714 31.5452C53.3974 35.4649 52.1989 36.6149 49.6235 36.6149Z" fill="white"/>
<path d="M69.627 30.8001C65.3671 30.8001 62.4192 27.3339 62.4192 22.1022C62.4192 16.8544 65.3509 13.4044 69.5784 13.4044C72.2995 13.4044 74.4537 14.9593 75.3445 17.1459H75.3931V8.02695C75.3931 7.34667 75.8305 6.87695 76.4621 6.87695C77.0938 6.87695 77.5473 7.34667 77.5473 8.02695V29.7473C77.5473 30.3628 77.11 30.8001 76.4945 30.8001C75.8952 30.8001 75.3931 30.379 75.3931 29.7473V26.8804H75.3445C74.5023 29.1804 72.4776 30.8001 69.627 30.8001ZM69.9995 28.905C73.2065 28.905 75.4093 26.1839 75.4093 22.1022C75.4093 18.0368 73.2065 15.2995 69.9995 15.2995C66.7601 15.2995 64.622 17.9882 64.622 22.1022C64.622 26.2163 66.7601 28.905 69.9995 28.905Z" fill="white"/>
<path d="M82.4713 30.8001C81.8396 30.8001 81.4023 30.3304 81.4023 29.6501V14.4896C81.4023 13.8417 81.8072 13.4044 82.4065 13.4044C83.0058 13.4044 83.4269 13.8417 83.4269 14.4896V16.6762H83.4755C84.0424 14.7002 85.6945 13.4044 87.541 13.4044C88.1241 13.4044 88.5938 13.5178 88.9339 13.7607C89.1769 13.9389 89.3226 14.198 89.3226 14.5382C89.3226 14.8783 89.1931 15.1375 88.9339 15.2995C88.6262 15.4614 88.2212 15.4452 87.4762 15.4452C84.8199 15.4452 83.5403 17.4861 83.5403 20.0452V29.6501C83.5403 30.3304 83.103 30.8001 82.4713 30.8001Z" fill="white"/>
<path d="M92.5945 10.2783C91.817 10.2783 91.1691 9.64666 91.1691 8.853C91.1691 8.07554 91.817 7.44385 92.5945 7.44385C93.3881 7.44385 94.036 8.07554 94.036 8.853C94.036 9.64666 93.3881 10.2783 92.5945 10.2783ZM92.5945 30.8001C91.9628 30.8001 91.5255 30.3304 91.5255 29.6501V14.5544C91.5255 13.8741 91.9628 13.4044 92.5945 13.4044C93.2262 13.4044 93.6635 13.8741 93.6635 14.5544V29.6501C93.6635 30.3304 93.2262 30.8001 92.5945 30.8001Z" fill="white"/>
<path d="M99.4458 30.8001C98.7818 30.8001 98.3606 30.3628 98.3606 29.6663V15.4614H96.7247C96.1578 15.4614 95.8015 15.1375 95.8015 14.5868C95.8015 14.0361 96.1578 13.6797 96.7247 13.6797H98.3606V11.5417C98.3606 8.51286 99.8832 7.10371 102.442 7.10371C103.754 7.10371 104.402 7.47625 104.402 8.12413C104.402 8.54526 104.192 8.78821 103.787 8.8854C103.576 8.93399 103.252 8.95018 102.896 8.95018C101.309 8.95018 100.499 9.72765 100.499 11.6389V13.6797H103.414C103.981 13.6797 104.337 14.0361 104.337 14.5868C104.337 15.1375 103.981 15.4614 103.414 15.4614H100.515V29.6663C100.515 30.3628 100.094 30.8001 99.4458 30.8001Z" fill="white"/>
<path d="M108.322 36.6149C107.253 36.6149 106.589 36.2423 106.589 35.5296C106.589 35.0437 106.913 34.7198 107.447 34.7198C107.787 34.7198 107.901 34.7684 108.306 34.7684C109.504 34.7684 110.444 34.0557 111.205 31.9015L111.658 30.6381L105.666 14.9593C105.585 14.7649 105.552 14.5544 105.552 14.3924C105.552 13.7931 106.006 13.4044 106.637 13.4044C107.139 13.4044 107.463 13.6311 107.658 14.198L112.76 28.3867H112.808L117.927 14.198C118.137 13.6311 118.413 13.4044 118.947 13.4044C119.563 13.4044 120 13.8093 120 14.3924C120 14.5544 119.968 14.7649 119.887 14.9593L113.57 31.5452C112.096 35.4649 110.897 36.6149 108.322 36.6149Z" fill="white"/>
</svg>
