<svg width="24" height="21" viewBox="0 0 24 21" fill="none" xmlns="http://www.w3.org/2000/svg">
<path d="M12.0234 5.08594C14.9766 5.08594 17.4141 7.52344 17.4141 10.4766C17.4141 13.4766 14.9766 15.8672 12.0234 15.8672C9.02344 15.8672 6.63281 13.4766 6.63281 10.4766C6.63281 7.52344 9.02344 5.08594 12.0234 5.08594ZM12.0234 13.9922C13.9453 13.9922 15.4922 12.4453 15.4922 10.4766C15.4922 8.55469 13.9453 7.00781 12.0234 7.00781C10.0547 7.00781 8.50781 8.55469 8.50781 10.4766C8.50781 12.4453 10.1016 13.9922 12.0234 13.9922ZM18.8672 4.89844C18.8672 4.19531 18.3047 3.63281 17.6016 3.63281C16.8984 3.63281 16.3359 4.19531 16.3359 4.89844C16.3359 5.60156 16.8984 6.16406 17.6016 6.16406C18.3047 6.16406 18.8672 5.60156 18.8672 4.89844ZM22.4297 6.16406C22.5234 7.89844 22.5234 13.1016 22.4297 14.8359C22.3359 16.5234 21.9609 17.9766 20.7422 19.2422C19.5234 20.4609 18.0234 20.8359 16.3359 20.9297C14.6016 21.0234 9.39844 21.0234 7.66406 20.9297C5.97656 20.8359 4.52344 20.4609 3.25781 19.2422C2.03906 17.9766 1.66406 16.5234 1.57031 14.8359C1.47656 13.1016 1.47656 7.89844 1.57031 6.16406C1.66406 4.47656 2.03906 2.97656 3.25781 1.75781C4.52344 0.539062 5.97656 0.164062 7.66406 0.0703125C9.39844 -0.0234375 14.6016 -0.0234375 16.3359 0.0703125C18.0234 0.164062 19.5234 0.539062 20.7422 1.75781C21.9609 2.97656 22.3359 4.47656 22.4297 6.16406ZM20.1797 16.6641C20.7422 15.3047 20.6016 12.0234 20.6016 10.4766C20.6016 8.97656 20.7422 5.69531 20.1797 4.28906C19.8047 3.39844 19.1016 2.64844 18.2109 2.32031C16.8047 1.75781 13.5234 1.89844 12.0234 1.89844C10.4766 1.89844 7.19531 1.75781 5.83594 2.32031C4.89844 2.69531 4.19531 3.39844 3.82031 4.28906C3.25781 5.69531 3.39844 8.97656 3.39844 10.4766C3.39844 12.0234 3.25781 15.3047 3.82031 16.6641C4.19531 17.6016 4.89844 18.3047 5.83594 18.6797C7.19531 19.2422 10.4766 19.1016 12.0234 19.1016C13.5234 19.1016 16.8047 19.2422 18.2109 18.6797C19.1016 18.3047 19.8516 17.6016 20.1797 16.6641Z" fill="white" style="fill:white;fill:white;fill-opacity:1;"/>
</svg>
