<svg width="24" height="25" viewBox="0 0 24 25" fill="none" xmlns="http://www.w3.org/2000/svg">
<path d="M15.2812 10.7656C15.2812 11.75 14.4844 12.5 13.5469 12.5H10.2188V9.03125H13.5469C14.4844 9.03125 15.2812 9.82812 15.2812 10.7656ZM23.625 12.5C23.625 18.9219 18.4219 24.125 12 24.125C5.57812 24.125 0.375 18.9219 0.375 12.5C0.375 6.07812 5.57812 0.875 12 0.875C18.4219 0.875 23.625 6.07812 23.625 12.5ZM17.5781 10.7656C17.5781 8.51562 15.7969 6.6875 13.5469 6.6875H7.92188V18.3125H10.2188V14.8438H13.5469C15.7969 14.8438 17.5781 13.0156 17.5781 10.7656Z" fill="white"/>
</svg>
