<svg width="24" height="25" viewBox="0 0 24 25" fill="none" xmlns="http://www.w3.org/2000/svg">
<g clip-path="url(#clip0_195_39194)">
<path d="M24 5.16573C23.1016 5.55667 22.1489 5.81331 21.1734 5.92716C22.2002 5.32269 22.968 4.3706 23.3334 3.249C22.3671 3.81393 21.3096 4.21136 20.2067 4.42398C19.5308 3.71715 18.6548 3.22632 17.6924 3.01499C16.7299 2.80366 15.7252 2.88156 14.8083 3.2386C13.8913 3.59565 13.1042 4.21542 12.5489 5.01773C11.9936 5.82004 11.6955 6.76795 11.6934 7.73886C11.6919 8.11004 11.7344 8.48014 11.82 8.84163C9.86209 8.74502 7.94657 8.24461 6.19752 7.3728C4.44846 6.50097 2.90487 5.27719 1.66667 3.7807C1.03851 4.84862 0.846727 6.11193 1.13028 7.31402C1.41383 8.51613 2.15146 9.5669 3.19335 10.2529C2.41077 10.229 1.64523 10.022 0.960003 9.64902V9.70809C0.960671 10.8278 1.35471 11.9128 2.07528 12.779C2.79586 13.6452 3.79859 14.2393 4.91334 14.4605C4.48999 14.5757 4.05256 14.6331 3.61335 14.6312C3.29571 14.6332 2.97864 14.6046 2.66668 14.5459C2.97997 15.51 3.59213 16.3533 4.41719 16.9573C5.24225 17.5612 6.23874 17.8956 7.26668 17.9132C5.20588 19.4954 2.59606 20.2169 0 19.9218C2.25116 21.346 4.87088 22.1026 7.54668 22.1012C16.6067 22.1012 21.5467 14.7165 21.5467 8.31651C21.5467 8.10645 21.5467 7.8964 21.5467 7.6601C22.5081 6.9783 23.3388 6.13371 24 5.16573Z" fill="#FAFAFA"/>
</g>
<defs>
<clipPath id="clip0_195_39194">
<rect width="24" height="24" fill="white" transform="translate(0 0.5)"/>
</clipPath>
</defs>
</svg>
